<?xml version="1.0" encoding="utf-8"?>
<!-- Svg Vector Icons : http://www.onlinewebfonts.com/icon -->
<!DOCTYPE svg PUBLIC "-//W3C//DTD SVG 1.1//EN" "http://www.w3.org/Graphics/SVG/1.1/DTD/svg11.dtd">
<svg version="1.1" xmlns="http://www.w3.org/2000/svg" xmlns:xlink="http://www.w3.org/1999/xlink" x="0px" y="0px" viewBox="0 0 1000 1000" enable-background="new 0 0 1000 1000" xml:space="preserve">
<metadata> Svg Vector Icons : http://www.onlinewebfonts.com/icon </metadata>
<g><path d="M499.9,305.8c-107.1,0-194.2,87.1-194.2,194.2s87.1,194.2,194.2,194.2C607,694.1,694.1,607,694.1,500S607,305.8,499.9,305.8z M499.9,653.9C415,653.9,346,584.8,346,500c0-84.9,69-153.9,153.9-153.9s153.9,69,153.9,153.9C653.8,584.8,584.8,653.9,499.9,653.9z"/><path d="M985.2,432.3c-1.2-9-8.3-16-17.3-17.2l-113.8-14.9c-7.8-27.8-18.9-54.6-33.1-79.9l70-91.1c5.5-7.2,5.6-17.2,0.1-24.4c-27.4-36.2-59.6-68.4-95.7-95.7c-7.2-5.5-17.2-5.5-24.4,0.1l-91.1,70c-25.3-14.2-52.1-25.4-80-33.2L585,32c-1.2-9-8.2-16.1-17.2-17.3c-45.7-6.3-89.7-6.3-135.3,0c-9,1.2-16,8.3-17.2,17.3l-14.9,113.8c-27.9,7.8-54.8,19-80.1,33.2l-91.1-70c-7.2-5.5-17.2-5.6-24.4-0.1c-16.4,12.4-32.4,26.2-47.6,41l-7.4,7.4c-14.6,14.9-28.3,30.8-40.7,47.2c-5.5,7.2-5.4,17.2,0.1,24.4l70,91.1c-14.3,25.4-25.4,52.3-33.3,80.2L31.9,415.1c-9,1.2-16.1,8.2-17.3,17.2c-2.7,19.8-4.3,40.2-4.6,60.8v14c0.3,20.3,1.8,40.6,4.6,60.5c1.2,9,8.3,16,17.3,17.2l113.8,14.9c7.9,28,19,54.8,33.3,80.2L109,771c-5.5,7.2-5.6,17.2-0.1,24.4c12.4,16.4,26.1,32.3,40.9,47.3l7.4,7.5c15,14.7,31,28.5,47.4,40.9c7.2,5.5,17.2,5.4,24.4-0.1l91.1-70c25.4,14.2,52.2,25.4,80.1,33.2L415.2,968c1.2,9,8.2,16.1,17.2,17.3c22.8,3.1,45.5,4.7,67.5,4.7c22.1,0,45-1.6,67.9-4.8c9-1.2,16-8.4,17.2-17.3l14.9-113.9c27.9-7.9,54.7-19,80-33.2l91.1,70c7.2,5.5,17.2,5.6,24.4,0.1c36.2-27.4,68.4-59.6,95.7-95.7c5.5-7.2,5.4-17.2-0.1-24.4l-70-91.1c14.2-25.3,25.3-52.1,33.1-79.9l113.8-14.9c9-1.2,16.1-8.2,17.3-17.2c3.1-22.8,4.8-45.6,4.8-67.7C990,478,988.4,455.1,985.2,432.3z M947.2,546.9l-111.8,14.6c-8.3,1.1-15,7.2-17,15.3c-8,33.1-21,64.7-38.9,93.9c-4.4,7.1-3.9,16.2,1.2,22.8l68.8,89.5c-19.8,24.4-42,46.6-66.4,66.4l-89.4-68.7c-6.6-5.1-15.7-5.6-22.8-1.2c-29.2,17.9-60.8,31-93.9,39c-8.1,2-14.2,8.7-15.2,17l-14.6,111.8c-31.8,3.4-62.2,3.4-93.9,0l-14.6-111.8c-1.1-8.3-7.2-15-15.3-17c-33.2-8-64.8-21.1-94.1-39c-7.1-4.3-16.2-3.9-22.8,1.2l-89.5,68.8c-10.8-8.8-21.4-18.2-31.3-27.9l-7.1-7.1c-9.8-10-19.2-20.5-27.9-31.3l68.7-89.4c5.1-6.6,5.6-15.7,1.2-22.8c-17.9-29.2-31.1-60.9-39.1-94.1c-2-8.1-8.7-14.2-17-15.3L52.7,546.9c-1.4-13.3-2.2-26.8-2.4-40.1v-13.4c0.2-13.5,1-27,2.4-40.4l111.8-14.6c8.3-1.1,15-7.2,17-15.3c8-33.2,21.1-64.9,39.1-94.1c4.4-7.1,3.9-16.2-1.2-22.8l-68.7-89.4c8.8-10.8,18.1-21.2,27.8-31.1l7.1-7.1c10.1-9.9,20.7-19.3,31.5-28.1l89.5,68.8c6.6,5.1,15.7,5.6,22.8,1.2c29.2-17.9,60.9-31,94.1-39c8.1-1.9,14.2-8.7,15.3-17l14.6-111.8c31.7-3.3,62.2-3.3,93.9,0l14.6,111.8c1.1,8.3,7.2,15,15.2,17c33.2,8,64.7,21.1,93.9,39c7.1,4.4,16.2,3.9,22.8-1.2l89.4-68.7c24.4,19.8,46.6,42.1,66.4,66.4l-68.8,89.5c-5.1,6.6-5.6,15.7-1.2,22.8c17.8,29.2,30.9,60.7,38.9,93.9c2,8.1,8.7,14.2,17,15.3L947.1,453c1.7,15.9,2.5,31.6,2.5,47C949.6,515.3,948.9,531.1,947.2,546.9z"/></g>
</svg>